<?xml version="1.0" encoding="UTF-8" standalone="no"?>
<!-- Created with Inkscape (http://www.inkscape.org/) -->

<svg
   xmlns:dc="http://purl.org/dc/elements/1.1/"
   xmlns:cc="http://creativecommons.org/ns#"
   xmlns:rdf="http://www.w3.org/1999/02/22-rdf-syntax-ns#"
   xmlns:svg="http://www.w3.org/2000/svg"
   xmlns="http://www.w3.org/2000/svg"
   xmlns:sodipodi="http://sodipodi.sourceforge.net/DTD/sodipodi-0.dtd"
   xmlns:inkscape="http://www.inkscape.org/namespaces/inkscape"
   width="200"
   height="80.400002"
   viewBox="0 0 200 80.400003"
   id="svg2"
   version="1.1"
   inkscape:version="0.91 r13725"
   sodipodi:docname="logo.svg">
  <defs
     id="defs4" />
  <sodipodi:namedview
     id="base"
     pagecolor="#ffffff"
     bordercolor="#666666"
     borderopacity="1.0"
     inkscape:pageopacity="0.0"
     inkscape:pageshadow="2"
     inkscape:zoom="1.979899"
     inkscape:cx="153.76883"
     inkscape:cy="113.05404"
     inkscape:document-units="px"
     inkscape:current-layer="g4203"
     showgrid="false"
     units="px"
     inkscape:window-width="1855"
     inkscape:window-height="1056"
     inkscape:window-x="65"
     inkscape:window-y="82"
     inkscape:window-maximized="1" />
  <metadata
     id="metadata7">
    <rdf:RDF>
      <cc:Work
         rdf:about="">
        <dc:format>image/svg+xml</dc:format>
        <dc:type
           rdf:resource="http://purl.org/dc/dcmitype/StillImage" />
        <dc:title></dc:title>
      </cc:Work>
    </rdf:RDF>
  </metadata>
  <g
     inkscape:label="Calque 1"
     inkscape:groupmode="layer"
     id="layer1"
     transform="translate(0,-971.96216)">
    <g
       id="g4203"
       transform="matrix(0.41140349,0,0,0.41140349,82.456153,655.0325)">
      <path
         style="fill:#fdfdfd"
         d="m -200.42648,868.07651 0,-97.71429 243.07038,0 243.07037,0 0,97.71429 0,97.71428 -243.07037,0 -243.07038,0 0,-97.71428 z"
         id="path4219"
         inkscape:connector-curvature="0" />
      <path
         style="fill:#f9cdcf"
         d="m -200.42648,868.07651 0,-97.71429 243.07038,0 243.07037,0 0,97.71429 0,97.71428 -243.07037,0 -243.07038,0 0,-97.71428 z m 44.23881,42.80063 c 0.0962,-30.88245 0.1847,-39.0136 0.42524,-39.09378 0.16704,-0.0557 0.37264,0.0784 0.45689,0.29795 0.0842,0.21955 3.12108,17.81175 6.74851,39.09377 l 6.59533,38.6946 7.39469,0.0644 c 4.06707,0.0354 7.48896,-0.0299 7.6042,-0.14512 0.11524,-0.11524 3.10172,-17.42652 6.63662,-38.46952 3.53491,-21.043 6.49176,-38.56079 6.57078,-38.92844 0.079,-0.36764 0.29873,-0.66844 0.48823,-0.66844 0.29568,0 0.35328,5.54313 0.40606,39.07356 l 0.0615,39.07356 28.06145,0.0618 c 15.4338,0.034 28.15372,-0.0305 28.26649,-0.14324 0.11277,-0.11277 0.96239,-5.69565 1.88805,-12.40639 0.92565,-6.71074 1.74817,-12.30677 1.82781,-12.43564 0.17601,-0.28479 23.36537,-0.32623 23.54099,-0.0421 0.0653,0.10573 0.84298,5.54747 1.72808,12.09275 0.8851,6.54528 1.71101,12.14709 1.83536,12.44845 l 0.22609,0.54795 27.6539998,-0.0618 27.6539902,-0.0618 0.0618,-26.56348 c 0.0487,-20.93293 0.12602,-26.58719 0.36461,-26.67536 0.16652,-0.0615 1.70074,-0.31362 3.40939,-0.56019 2.34623,-0.33858 3.19886,-0.38087 3.48343,-0.17279 0.2445,0.17879 2.80149,9.53186 7.28231,26.63753 3.79802,14.49911 7.01357,26.60812 7.14568,26.90892 l 0.24018,0.54691 13.98177,0 c 12.17698,0 13.98175,-0.0464 13.98175,-0.35945 0,-0.1977 -4.10181,-14.32845 -9.11514,-31.40168 -5.01332,-17.07322 -9.11514,-31.21505 -9.11514,-31.42628 0,-0.21123 0.98779,-1.29501 2.19508,-2.40839 6.97823,-6.43549 12.29476,-15.77539 14.42479,-25.34091 0.71312,-3.20251 1.19437,-8.16177 0.97401,-10.03681 -0.0888,-0.7558 -0.0457,-1.48639 0.10342,-1.75289 0.23449,-0.41903 0.27902,-0.39642 0.53634,0.27225 0.15432,0.40107 4.04683,23.31652 8.64997,50.92324 4.60317,27.60672 8.43102,50.49483 8.50635,50.86247 l 0.13694,0.66845 16.8817,0 c 13.28346,0 16.90564,-0.0648 16.99395,-0.30384 0.0617,-0.16711 5.35516,-33.37817 11.76317,-73.80234 6.40799,-40.42418 11.76663,-73.61422 11.90807,-73.75565 0.14142,-0.14143 0.341,-0.17329 0.44348,-0.0708 0.1025,0.10249 0.21441,33.42972 0.24869,74.06052 l 0.0623,73.87418 27.52614,-0.0618 27.52617,-0.0618 0,-14.34115 0,-14.34115 -13.1258,-0.12154 -13.1258,-0.12153 0,-19.08102 0,-19.08103 13.18657,-0.0629 13.18656,-0.0629 0,-14.58213 0,-14.58213 -12.94349,-0.004 c -7.11893,-0.002 -13.08091,-0.091 -13.24887,-0.19758 -0.24166,-0.15343 -0.29237,-4.09489 -0.24307,-18.895 l 0.0623,-18.70114 13.18657,-0.0629 13.18656,-0.0629 0,-14.58213 0,-14.58213 -41.32196,0 c -22.72708,0 -41.32449,0.0274 -41.32758,0.0608 -0.26113,2.83011 -13.63192,98.99169 -13.78566,99.14544 -0.14485,0.14485 -0.32363,0.11373 -0.48228,-0.084 -0.13864,-0.17277 -3.22211,-22.29985 -6.85213,-49.17128 -3.63001,-26.87143 -6.65327,-49.10325 -6.71834,-49.40405 l -0.11833,-0.54691 -14.5796,0 c -13.72344,0 -14.57956,0.025 -14.57912,0.42538 2.4e-4,0.23395 0.71122,6.03663 1.57996,12.89484 0.86871,6.85821 1.57949,12.51871 1.57949,12.57889 0,0.0602 -0.19141,0.10597 -0.42537,0.10176 -0.27676,-0.005 -0.93487,-0.86273 -1.8838,-2.45526 -4.0652,-6.82239 -9.85961,-12.84401 -16.05968,-16.68941 -4.99145,-3.09579 -9.92634,-4.97442 -16.20886,-6.17044 -2.60357,-0.49565 -3.5804,-0.52501 -20.53729,-0.61738 l -17.8037002,-0.097 -0.062,72.30749 c -0.0341,39.76912 -0.14582998,72.39134 -0.24832998,72.49384 -0.10249,0.10249 -0.29299,0.0797 -0.42332,-0.0506 C 0.16678982,930.94578 -21.5268,787.63739 -21.5268,786.62416 c 0,-0.1291 -8.0013,-0.21974 -19.39725,-0.21974 l -19.39725,0 -11.21662,74.77975 c -6.16914,41.12886 -11.33002,74.89316 -11.46864,75.03177 -0.13861,0.13861 -0.33588,0.16817 -0.43837,0.0657 -0.1025,-0.10249 -0.21422,-33.86678 -0.24828,-75.03177 l -0.0619,-74.84542 -18.47218,0 c -10.1597,0 -18.47219,0.0845 -18.47219,0.18784 0,0.49293 -13.38816,83.77175 -13.48258,83.86618 -0.33193,0.33192 -0.84496,-0.30177 -0.98254,-1.21363 -0.0869,-0.57597 -3.02162,-19.42333 -6.52158,-41.88303 l -6.36356,-40.83582 -18.47093,0 -18.47092,0 -0.0622,81.42857 c -0.0342,44.78571 -0.01,81.56617 0.0539,81.73436 0.0918,0.24186 3.10249,0.29267 14.40337,0.24307 l 14.28726,-0.0627 0.12154,-38.99254 z m 106.95096,-12.45693 c 0,-0.83795 7.7092,-67.79433 7.90858,-68.68805 0.18394,-0.82454 0.79872,-0.6685 0.95769,0.24307 0.30997,1.77746 8.14866,67.50245 8.14866,68.32398 l 0,0.8903 -8.50746,0 -8.50747,0 0,-0.7693 z M 30.16628,868.4006 c -0.0891,-0.0891 -0.16204,-12.12111 -0.16204,-26.73774 l 0,-26.57569 1.41954,0 c 3.09986,0 7.70046,1.74457 10.54482,3.99866 5.72136,4.53403 8.85116,13.53053 8.37579,24.07596 -0.24915,5.5268 -1.31489,9.82338 -3.47323,14.0023 -2.27458,4.40401 -5.45231,7.62591 -9.45328,9.58468 -2.62081,1.28308 -6.69279,2.21063 -7.2516,1.65183 z m 240.11302,67.12793 0,-14.34115 -12.25288,-0.063 c -8.55533,-0.044 -12.35126,-0.14468 -12.5789,-0.3336 -0.27119,-0.22507 -0.326,-11.54643 -0.326,-67.32822 l 0,-67.05766 -14.34115,0 -14.34116,0 0,81.63113 c 0,44.89713 0.0734,81.70453 0.1631,81.79424 0.0897,0.0897 12.20374,0.13528 26.92005,0.10128 l 26.75694,-0.0618 0,-14.34115 z"
         id="path4217"
         inkscape:connector-curvature="0" />
      <path
         style="fill:#f59da0"
         d="m -200.42648,868.07651 0,-97.71429 243.07038,0 243.07037,0 0,97.71429 0,97.71428 -243.07037,0 -243.07038,0 0,-97.71428 z m 44.42186,43.52099 c 0.037,-23.15454 0.15111,-38.60484 0.28615,-38.73987 0.13745,-0.13746 0.3185,0.14112 0.46653,0.71781 0.13306,0.51833 3.11247,17.8419 6.62092,38.4968 3.50845,20.6549 6.48363,37.6911 6.61151,37.85821 0.17704,0.23135 1.97958,0.30295 7.55563,0.30012 4.02772,-0.002 7.4517,-0.0855 7.60885,-0.18546 0.16685,-0.10612 2.96877,-16.15022 6.73417,-38.56051 5.58379,-33.23272 6.69704,-39.38802 7.01332,-38.7776 0.0312,0.0602 0.11321,17.50106 0.1823,38.75756 l 0.12563,38.64819 28.07463,0.0576 c 15.44104,0.0317 28.2046,-0.0253 28.36345,-0.1266 0.17673,-0.11273 0.91359,-4.80475 1.89861,-12.08961 0.88538,-6.54796 1.71016,-12.15149 1.83283,-12.45229 l 0.22305,-0.54691 11.41517,0 c 7.30819,0 11.46894,0.087 11.56462,0.24181 0.0822,0.13299 0.90303,5.72865 1.82407,12.43479 1.12657,8.20255 1.77842,12.25901 1.99177,12.39472 0.17442,0.11096 12.73195,0.17581 27.9056198,0.1441 l 27.5884902,-0.0576 0.12154,-26.42179 c 0.0813,-17.68292 0.20452,-26.50477 0.37246,-26.67267 0.32807,-0.32802 6.3333,-1.20085 6.70052,-0.9739 0.15535,0.096 3.42307,12.14961 7.2616,26.78578 3.83855,14.63618 7.04761,26.78963 7.1313,27.00767 0.13826,0.3603 1.44931,0.39645 14.37936,0.39645 13.8854,0 14.22725,-0.0113 14.22725,-0.46839 0,-0.25761 -4.10181,-14.43562 -9.11514,-31.50669 -5.01332,-17.07107 -9.11514,-31.23081 -9.11514,-31.46609 0,-0.23528 0.46488,-0.81148 1.03305,-1.28045 7.334,-6.05344 13.68137,-17.00223 15.74496,-27.15898 0.28519,-1.40373 0.61417,-4.08358 0.73101,-5.95522 0.11687,-1.87165 0.21757,-3.45221 0.22379,-3.51237 0.12592,-1.2165 1.82916,8.50293 8.87446,50.64109 4.62441,27.65875 8.46621,50.38279 8.53731,50.49787 0.0711,0.11507 7.7115,0.20923 16.97861,0.20923 13.18713,0 16.90236,-0.066 17.09349,-0.30384 0.13432,-0.16711 5.40559,-32.89957 11.7139,-72.73881 6.30833,-39.83923 11.5787,-72.85619 11.71198,-73.37101 0.13325,-0.51483 0.31713,-0.86121 0.4086,-0.76974 0.0915,0.0915 0.22102,33.21782 0.28787,73.61409 l 0.12153,73.44777 27.22389,0.0667 c 14.97313,0.0367 27.47084,0.007 27.77271,-0.0659 l 0.5488,-0.13257 -0.0627,-14.51835 -0.0627,-14.51834 -13.18805,-0.0629 -13.18808,-0.0629 0.0623,-18.89663 0.0622,-18.89663 13.1258,-0.12153 13.1258,-0.12154 0,-14.70575 0,-14.70576 -13.1258,-0.12154 -13.1258,-0.12153 0,-18.59488 0,-18.59489 13.1258,-0.12153 13.1258,-0.12154 0,-14.70575 0,-14.70576 -41.30911,-0.0615 c -22.72,-0.0338 -41.39814,0.0276 -41.50698,0.1364 -0.10883,0.10883 -3.20729,22.17689 -6.88551,49.04015 -3.67819,26.86325 -6.75052,49.0447 -6.82741,49.29211 -0.0878,0.2827 -0.22518,0.36443 -0.36963,0.21996 -0.12645,-0.12644 -3.21945,-22.27581 -6.87333,-49.22083 -3.65391,-26.94502 -6.7181,-49.11174 -6.80935,-49.2594 -0.11813,-0.19111 -4.39897,-0.26846 -14.85734,-0.26846 -13.73469,0 -14.69141,0.0272 -14.69141,0.41827 0,0.23005 0.65731,5.67179 1.46068,12.09275 0.80337,6.42097 1.48701,11.99179 1.51919,12.3796 0.0892,1.07446 -0.38891,1.0029 -1.0269,-0.15371 -0.90587,-1.64223 -3.36861,-5.25853 -4.83192,-7.09516 -8.05526,-10.11038 -19.28494,-16.19309 -32.12319,-17.39994 -1.77288,-0.16666 -8.61866,-0.23671 -18.71641,-0.19152 l -15.92111018,0.0713 -0.12256,71.82729 c -0.0674,39.50501 -0.15276,71.88198 -0.18969,71.94883 -0.0369,0.0668 -0.17316,-0.0601 -0.30273,-0.2821 -0.12958,-0.22199 -5.05154002,-32.48958 -10.93768982,-71.70575 -5.88616,-39.21617 -10.7505,-71.43951 -10.80965,-71.60742 -0.0854,-0.24227 -4.13432,-0.29244 -19.61675,-0.24307 l -19.5092,0.0622 -11.08009,73.89339 c -6.09404,40.64136 -11.1674,74.22153 -11.27412,74.6226 -0.17508,0.65796 -0.2134,0.68171 -0.39218,0.24307 -0.10897,-0.26738 -0.20582,-33.87489 -0.21521,-74.68337 l -0.0171,-74.19723 -18.58054,0 c -10.21929,0 -18.62976,0.082 -18.68991,0.18231 -0.0602,0.10026 -3.09671,18.86117 -6.7479,41.69091 -3.65118,22.82974 -6.71984,41.64022 -6.81925,41.80106 -0.0994,0.16085 -0.25196,0.22124 -0.33899,0.13421 -0.087,-0.087 -3.04763,-18.73344 -6.57911,-41.43646 -3.53147,-22.70301 -6.47646,-41.525 -6.54442,-41.82663 l -0.12355,-0.54841 -18.65064,0.0623 -18.65064,0.0623 -0.0611,81.6463 c -0.0452,60.43474 0.0103,81.73232 0.21366,81.9774 0.2273,0.27388 2.75756,0.32026 14.64534,0.2684 l 14.37057,-0.0627 0.0615,-38.51525 z M -48.6898,899.02853 c -0.16711,-0.0674 -0.30384,-0.44384 -0.30384,-0.83647 0,-1.58528 7.80886,-67.91929 8.02038,-68.13081 0.14206,-0.14206 0.27555,-0.0982 0.35396,0.1164 0.0692,0.18947 1.93028,15.38446 4.13565,33.76666 2.20538,18.38219 4.05251,33.67446 4.10474,33.9828 0.20872,1.23221 -0.003,1.26391 -8.30693,1.24321 -4.23506,-0.0106 -7.83685,-0.0744 -8.00396,-0.14179 z m 78.94566,-31.17912 c -0.16891,-0.31561 -0.25162,-8.93924 -0.25162,-26.23423 0,-21.7961 0.0526,-25.81665 0.34131,-26.1054 0.26826,-0.26825 0.69753,-0.29875 2.00534,-0.14249 6.40356,0.76513 11.69708,4.53698 14.65155,10.43988 1.95149,3.89892 2.88746,8.15145 3.09754,14.07317 0.31653,8.92289 -1.83474,16.18421 -6.46966,21.83744 -2.2681,2.76642 -6.73151,5.52071 -10.10156,6.23349 -2.30391,0.48728 -2.96868,0.46659 -3.2729,-0.10186 z m 240.3292,67.61835 -0.0627,-14.52345 -12.51812,-0.12154 -12.51813,-0.12153 -0.0612,-67.27164 -0.0612,-67.27163 -14.52301,0.0627 -14.52302,0.0627 -0.0622,81.5501 c -0.0342,44.85256 -0.0102,81.68684 0.0531,81.85395 0.0913,0.24056 5.76128,0.30384 27.22724,0.30384 l 27.11187,0 -0.0627,-14.52346 z"
         id="path4215"
         inkscape:connector-curvature="0" />
      <path
         style="fill:#f37d81"
         d="m -200.42648,868.07651 0,-97.71429 243.07038,0 243.07037,0 0,97.71429 0,97.71428 -243.07037,0 -243.07038,0 0,-97.71428 z m 331.6361,81.90615 c 0.15883,-0.14543 23.24154,-144.77525 23.24577,-145.65136 0,-0.10026 0.11009,-0.1823 0.24356,-0.1823 0.16084,0 0.26329,24.61034 0.30384,72.98188 l 0.0611,72.98187 27.81659,0.0618 c 22.09266,0.0491 27.8564,-9.7e-4 28.01012,-0.24307 0.22362,-0.35221 0.27537,-28.14599 0.0535,-28.72422 -0.13194,-0.34386 -1.51238,-0.38488 -13.06503,-0.38821 -7.10461,-0.002 -13.0549,-0.091 -13.22286,-0.19759 -0.24166,-0.15342 -0.29236,-4.07059 -0.24307,-18.77347 l 0.0623,-18.57959 13.00426,-0.0612 c 11.88182,-0.0559 13.0305,-0.0967 13.30811,-0.47184 0.23495,-0.31751 0.30383,-3.6413 0.30383,-14.65884 0,-11.01755 -0.0689,-14.34134 -0.30383,-14.65885 -0.27761,-0.37518 -1.42629,-0.4159 -13.30811,-0.47184 l -13.00426,-0.0612 0,-18.35181 0,-18.35182 13.1258,-0.12153 13.1258,-0.12154 0,-14.94882 0,-14.94883 -41.21377,-0.0615 c -32.73162,-0.0488 -41.29183,10e-4 -41.59289,0.24307 -0.29609,0.23785 -1.82746,10.92322 -6.99333,48.79708 -3.63784,26.67089 -6.67151,48.69496 -6.74151,48.94237 -0.07,0.24742 -0.21891,0.3568 -0.33094,0.24307 -0.11203,-0.11372 -3.17547,-22.13779 -6.80767,-48.94237 -3.63218,-26.80459 -6.71514,-48.87234 -6.85097,-49.03945 -0.19265,-0.23699 -3.43587,-0.30302 -14.74068,-0.30011 -7.97154,0.002 -14.62737,0.0886 -14.79071,0.19242 -0.22839,0.14512 0.0679,3.10015 1.28241,12.79168 0.86871,6.93163 1.52821,12.65421 1.46557,12.71685 -0.0626,0.0626 -0.51806,-0.52701 -1.01205,-1.31033 -3.08733,-4.89557 -5.25217,-7.68862 -8.358,-10.78351 -8.10056,-8.07197 -18.12537,-12.56748 -29.78455,-13.35656 -4.38232,-0.29658 -32.6787402,-0.3329 -33.1367502,-0.0425 -0.26588998,0.16858 -0.34704998,12.66758 -0.46407998,71.46888 -0.078,39.19551 -0.23168,71.17471 -0.34152,71.06488 -0.10983,-0.10984 -5.00239002,-32.17648 -10.87233982,-71.25919 -7.54376,-50.22709 -10.76967,-71.12097 -11.0036,-71.26918 -0.49766,-0.3153 -38.79136,-0.27794 -38.98664,0.038 -0.0867,0.14034 -5.12946,33.41896 -11.20605,73.95247 -6.07659,40.53352 -11.15302,73.80197 -11.28095,73.9299 -0.14809,0.14809 -0.2326,-26.66843 -0.2326,-73.80493 0,-67.28832 -0.035,-74.05098 -0.38449,-74.18508 -0.60791,-0.23328 -36.64577,-0.16415 -37.01699,0.071 -0.2328,0.14747 -2.33477,12.72025 -6.97293,41.70801 -3.65182,22.8233 -6.70127,41.5585 -6.77656,41.63379 -0.0753,0.0753 -0.1837,0.0901 -0.24092,0.0328 -0.0572,-0.0572 -3.00803,-18.73816 -6.55736,-41.5132 -3.54933,-22.77504 -6.57859,-41.56009 -6.7317,-41.74457 -0.23213,-0.2797 -3.2982,-0.33542 -18.459,-0.33542 -9.99935,0 -18.35365,0.0664 -18.56512,0.14754 -0.34955,0.13414 -0.38449,7.59957 -0.38449,82.15967 l 0,82.01212 14.76653,-0.0626 14.76652,-0.0627 0.12154,-38.28358 c 0.0668,-21.05597 0.20332,-38.11951 0.30329,-37.91898 0.1,0.20054 3.07538,17.34809 6.61204,38.10568 3.53666,20.7576 6.49667,37.84848 6.57779,37.97975 0.0915,0.14811 3.09156,0.23867 7.90679,0.23867 l 7.75927,0 0.12761,-0.54691 c 0.12585,-0.53937 12.76438,-75.70343 12.76438,-75.9125 0,-0.0593 0.10905,-0.10776 0.24232,-0.10776 0.15975,0 0.26328,13.0235 0.30384,38.22282 l 0.0615,38.22281 28.49512,0.0618 28.49512,0.0618 0.1234,-0.54791 c 0.0679,-0.30135 0.84671,-5.85292 1.73074,-12.33682 0.88404,-6.4839 1.71915,-11.92564 1.85581,-12.09275 0.19219,-0.23502 2.76737,-0.30384 11.37018,-0.30384 8.60954,0 11.17498,0.0686 11.35754,0.30384 0.12971,0.16711 0.97527,5.77292 1.87902,12.45735 0.90376,6.68444 1.71936,12.23602 1.81245,12.33685 0.0931,0.10084 12.74221,0.15553 28.1091598,0.12154 l 27.9399102,-0.0618 0.0618,-26.40503 c 0.0485,-20.72701 0.12694,-26.45546 0.3646,-26.63955 0.42305,-0.32771 6.28462,-1.11045 6.51765,-0.87036 0.10484,0.10801 3.21128,11.73616 6.90318,25.84032 3.69193,14.10415 6.87513,26.21817 7.07376,26.92004 l 0.36121,1.27612 14.45588,0 c 11.52423,0 14.4559,-0.0626 14.4559,-0.30871 0,-0.16979 -4.15526,-14.46068 -9.2339,-31.75753 l -9.2339,-31.44883 2.54139,-2.40833 c 4.21596,-3.99524 7.34061,-8.25037 10.05697,-13.69555 3.15102,-6.31648 5.11685,-13.63871 5.13549,-19.12839 0.003,-0.76871 0.10243,-1.39765 0.22185,-1.39765 0.1194,0 0.32647,0.62894 0.46016,1.39765 0.13371,0.76871 3.88818,23.20795 8.34329,49.86498 4.79145,28.66952 8.2266,48.59373 8.40965,48.77679 0.24718,0.24718 3.69781,0.28294 17.14432,0.17768 9.25918,-0.0725 16.92919,-0.21816 17.0445,-0.32374 z m -180.05571,-51.2372 c -0.13251,-0.2144 7.56249,-67.24303 7.79029,-67.85872 0.1081,-0.29218 0.1764,-0.26804 0.34384,0.12153 0.28487,0.6628 8.28453,67.4379 8.11243,67.71637 -0.17186,0.27808 -16.07497,0.29845 -16.24656,0.0208 z m 79.20546,-30.97279 c -0.0637,-0.16711 -0.0876,-12.00768 -0.0531,-26.31237 l 0.0626,-26.00853 1.64655,0.0666 c 1.9977,0.0808 5.10678,1.01654 7.16986,2.15797 7.09695,3.92651 10.75365,11.94525 10.74932,23.57212 -0.002,6.27203 -0.92065,10.72223 -3.15362,15.28223 -2.19334,4.4791 -5.46523,7.91485 -9.36307,9.83195 -3.00032,1.47567 -6.74829,2.22439 -7.05851,1.41006 z m 240.28454,67.75586 0,-14.70576 -12.13364,0 c -6.6735,0 -12.30665,-0.0664 -12.51812,-0.14754 -0.34932,-0.13404 -0.38449,-6.27932 -0.38449,-67.17919 0,-56.27253 -0.0531,-67.07576 -0.33111,-67.30644 -0.23986,-0.19907 -4.27517,-0.25751 -14.64499,-0.21207 l -14.31388,0.0627 -0.0622,81.79317 c -0.0342,44.98625 -0.0102,81.92991 0.0531,82.09702 0.0913,0.24056 5.76092,0.30384 27.22532,0.30384 l 27.10998,0 0,-14.70576 z"
         id="path4213"
         inkscape:connector-curvature="0" />
      <path
         style="fill:#f05b60"
         d="m -200.42648,868.07651 0,-97.71429 243.07038,0 243.07037,0 0,97.71429 0,97.71428 -243.07037,0 -243.07038,0 0,-97.71428 z m 44.34046,82.25331 c 0.34831,-0.13366 0.38449,-3.68863 0.38449,-37.7831 0,-21.86159 0.0911,-37.69186 0.21737,-37.7699 0.11955,-0.0739 0.32499,0.49391 0.45653,1.26178 0.13155,0.76786 3.01195,17.68373 6.40089,37.59082 3.83763,22.54274 6.28491,36.3179 6.48833,36.52132 0.47378,0.47378 15.17567,0.47971 15.56858,0.006 0.14622,-0.17618 3.05521,-16.93892 6.46441,-37.25053 3.40921,-20.3116 6.2998,-37.25833 6.42353,-37.6594 0.14033,-0.45485 0.23431,13.38331 0.24979,36.78037 0.0168,25.345 0.10642,37.66206 0.27644,37.97975 0.24655,0.46069 0.82078,0.47016 28.531,0.47016 23.35842,0 28.32649,-0.0568 28.55006,-0.32614 0.14887,-0.17938 0.97916,-5.51174 1.84508,-11.84968 0.86592,-6.33795 1.63752,-11.87903 1.71467,-12.31352 l 0.14026,-0.78998 11.41329,0 c 6.27731,0 11.41329,0.0458 11.41329,0.10183 0,0.056 0.76279,5.65358 1.69509,12.43905 1.11665,8.12724 1.80095,12.40461 2.00533,12.5347 0.17063,0.10861 12.83445,0.17154 28.1417998,0.13984 l 27.8315602,-0.0576 0.12422,-26.6162 c 0.0683,-14.63891 0.15036,-26.62935 0.18231,-26.64541 0.31038,-0.15606 5.71705,-0.84436 6.14336,-0.78208 0.53239,0.0778 0.92865,1.4816 7.56066,26.78515 3.84936,14.68669 7.12525,26.8554 7.27977,27.04157 0.39382,0.47451 28.46111,0.50824 28.85177,0.0347 0.17941,-0.21747 -2.36748,-9.21688 -8.95996,-31.65992 -5.06586,-17.24584 -9.21237,-31.44856 -9.21451,-31.5616 -0.002,-0.11304 1.29061,-1.48031 2.8727,-3.03838 4.0385,-3.97709 6.78072,-7.71858 9.41371,-12.84405 2.87625,-5.59901 4.77662,-11.97672 5.12878,-17.21243 0.16492,-2.4523 0.42277,-3.29705 0.66166,-2.16791 0.0826,0.39008 3.82058,22.68829 8.30674,49.55157 4.48615,26.86328 8.21147,48.93103 8.27849,49.03945 0.067,0.10841 7.81337,0.19711 17.21417,0.19711 13.38387,0 17.14441,-0.0659 17.33228,-0.30384 0.13196,-0.16711 5.35107,-32.57143 11.598,-72.0096 12.52447,-79.06943 11.56342,-73.11659 11.77071,-72.90929 0.0827,0.0826 0.20493,32.76419 0.27178,72.6257 l 0.12153,72.47549 27.68387,0.0618 c 20.25562,0.0452 27.77242,-0.0117 28.01386,-0.21207 0.27122,-0.22508 0.32999,-2.86192 0.32999,-14.80232 0,-13.02382 -0.0398,-14.54373 -0.38448,-14.676 -0.21148,-0.0811 -6.17346,-0.14754 -13.24885,-0.14754 l -12.86435,0 0.0623,-18.65565 0.0623,-18.65565 13.1258,-0.12153 13.1258,-0.12154 0,-14.94882 0,-14.94883 -13.1258,-0.12154 -13.1258,-0.12153 -0.0623,-18.41049 -0.0623,-18.41048 13.1881,-0.0629 13.1881,-0.0629 0,-14.94882 0,-14.94883 -41.55218,-0.0615 c -22.85369,-0.0338 -41.63817,0.0245 -41.74327,0.12961 -0.10508,0.1051 -3.19268,22.10113 -6.8613,48.88008 -3.66863,26.77895 -6.73059,48.74934 -6.80434,48.82309 -0.0738,0.0738 -0.1859,-0.0183 -0.24922,-0.20454 -0.0633,-0.18624 -3.06235,-22.12469 -6.6645,-48.75209 -3.60214,-26.62741 -6.62204,-48.53109 -6.71091,-48.67484 -0.11237,-0.18183 -4.67198,-0.26138 -14.9821,-0.26138 -13.17391,0 -14.83668,0.0419 -14.96543,0.37746 -0.0797,0.2076 0.53451,5.78599 1.36484,12.39641 0.83033,6.61043 1.4695,12.13944 1.42043,12.28671 -0.0491,0.14726 -0.85026,-0.91913 -1.7804,-2.36976 -4.02186,-6.27255 -9.46093,-11.85399 -15.06438,-15.45866 -3.86569,-2.48679 -8.80466,-4.61088 -13.44804,-5.78358 -5.3162,-1.34263 -7.63438,-1.46783 -25.80782,-1.39384 l -16.40725018,0.0668 -0.12154,70.77399 c -0.0668,38.9257 -0.19271,70.84517 -0.27971,70.93216 -0.19666,0.19666 1.23528998,9.56195 -10.90745982,-71.33728 -5.74899,-38.30181 -10.51329,-69.83108 -10.58732,-70.06503 -0.12673,-0.4005 -1.28393,-0.42538 -19.79054,-0.42538 -18.50932,0 -19.66338,0.0248 -19.78347,0.42538 -0.0701,0.23395 -5.00148,32.96641 -10.95853,72.7388 -11.88469,79.34842 -11.06346,73.97706 -11.27759,73.76294 -0.0842,-0.0842 -0.20781,-33.14992 -0.27466,-73.47935 l -0.12153,-73.32623 -18.76034,-0.0623 c -17.92585,-0.0595 -18.76654,-0.0427 -18.90007,0.37801 -0.1281,0.4036 -13.26284,82.22286 -13.26284,82.61721 0,0.095 -0.10133,0.0689 -0.22519,-0.0581 -0.12386,-0.12701 -3.08059,-18.60704 -6.57053,-41.06674 -3.48993,-22.4597 -6.44924,-41.0826 -6.57625,-41.38423 l -0.23091,-0.54841 -18.78172,0.0623 -18.78171,0.0623 -0.0611,81.88937 c -0.045,60.33485 0.0108,81.97602 0.21207,82.21855 0.2241,0.27003 2.84135,0.32918 14.5647,0.32918 7.86033,0 14.46453,-0.0664 14.67599,-0.14754 z m 107.41837,-51.76099 c -0.15618,-0.40699 7.35519,-65.94358 7.6737,-66.95288 l 0.19176,-0.60768 0.14833,0.72922 c 0.41338,2.0322 8.00646,66.45756 7.87345,66.80418 -0.14045,0.366 -0.90177,0.40477 -7.94883,0.40477 -6.82262,0 -7.81156,-0.047 -7.93841,-0.37761 z m 79.07156,-30.85318 c -0.24398,-0.6358 -0.17853,-51.48828 0.0668,-51.87572 0.31856,-0.50316 3.16221,-0.20355 5.51727,0.58132 7.3564,2.45165 11.79346,8.48601 13.49612,18.35462 0.4971,2.8812 0.42646,10.54625 -0.12433,13.4904 -1.18147,6.31539 -3.72251,11.31719 -7.56972,14.90031 -2.89649,2.69765 -6.28734,4.34304 -9.86692,4.78786 -1.15051,0.14296 -1.38695,0.1058 -1.51919,-0.23879 z m 240.07459,82.45787 c 0.38276,-0.28115 0.40891,-1.39302 0.35029,-14.88806 l -0.0634,-14.58422 -12.51812,-0.12154 -12.51813,-0.12153 -0.12153,-67.20896 -0.12154,-67.20895 -14.70575,0 -14.70576,0 -0.0622,81.91471 c -0.0583,76.79983 -0.0364,81.93368 0.35029,82.21855 0.32406,0.23871 6.12348,0.30384 27.0573,0.30384 20.9332,0 26.73349,-0.0651 27.05848,-0.30384 z"
         id="path4211"
         inkscape:connector-curvature="0" />
      <path
         style="fill:#ee3c42"
         d="m -200.42648,868.07651 0,-97.71429 243.07038,0 243.07037,0 0,97.71429 0,97.71428 -243.07037,0 -243.07038,0 0,-97.71428 z m 331.8669,82.16216 c 0.10856,-0.0992 5.27329,-32.21694 11.4772,-71.37276 6.20391,-39.15581 11.36541,-71.57523 11.47,-72.04314 0.1046,-0.46791 0.24487,31.63561 0.31172,71.34115 l 0.12153,72.1919 27.9531,0.0627 c 26.06429,0.0584 27.97363,0.0348 28.25693,-0.3503 0.23485,-0.31923 0.30308,-3.58916 0.30051,-14.40384 -0.002,-7.69497 -0.069,-14.23602 -0.14932,-14.53568 l -0.14604,-0.54483 -13.15876,-0.0628 -13.15876,-0.0628 -0.0623,-18.53412 -0.0623,-18.53411 12.98841,0 c 11.48357,0 13.03268,-0.0443 13.3704,-0.38197 0.33867,-0.33868 0.38197,-2.02072 0.38197,-14.84327 0,-9.50371 -0.0863,-14.62249 -0.25163,-14.93147 -0.244,-0.45591 -0.649,-0.47016 -13.36887,-0.47016 l -13.11725,0 0,-18.23027 0,-18.23028 12.98691,0 c 11.48219,0 13.03115,-0.0443 13.36887,-0.38197 0.33872,-0.33874 0.38197,-2.02874 0.38197,-14.93146 0,-12.90273 -0.0433,-14.59273 -0.38197,-14.93147 -0.34426,-0.34424 -4.45944,-0.38197 -41.66921,-0.38197 -37.20977,0 -41.32495,0.0377 -41.66921,0.38197 -0.21009,0.21008 -0.38196,0.52869 -0.38196,0.70801 0,0.59088 -13.1384,96.23178 -13.23249,96.32588 -0.0506,0.0506 -0.14915,-0.10767 -0.219,-0.3517 -0.0699,-0.24403 -3.04468,-22.04657 -6.61072,-48.45009 -5.13848,-38.04625 -6.56367,-48.06943 -6.86914,-48.31023 -0.60243,-0.47487 -29.53213,-0.43927 -29.92726,0.0368 -0.21789,0.26254 0.054,2.98643 1.1856,11.87656 0.80757,6.34474 1.46831,11.84878 1.46831,12.2312 0,0.5916 -0.21789,0.35839 -1.46071,-1.56343 -8.19088,-12.66577 -19.05652,-19.94042 -33.30298,-22.29665 -2.20531,-0.36473 -4.86643,-0.43358 -19.80561,-0.51237 -11.1895002,-0.059 -17.3862002,-0.006 -17.62260018,0.15069 -0.32234,0.2137 -0.37535,8.4065 -0.4573,70.68023 -0.051,38.74119 -0.14063,70.30628 -0.19923,70.14467 -0.0586,-0.16162 -4.84977002,-31.87137 -10.64706982,-70.46611 -7.22299,-48.08617 -10.64123,-70.23611 -10.86047,-70.37514 -0.17597,-0.11158 -9.02973,-0.20455 -19.67504,-0.2066 -16.70315,-0.003 -19.39558,0.0451 -19.65055,0.35228 -0.16469,0.19844 -5.12346,32.54031 -11.20434,73.07649 -5.99989,39.99628 -10.96658,72.77819 -11.03708,72.8487 -0.0705,0.0705 -0.1282,-32.68266 -0.1282,-72.78481 0,-56.38603 -0.0661,-72.97912 -0.29168,-73.20469 -0.34548,-0.34548 -37.04298,-0.42354 -37.58492,-0.0799 -0.21813,0.13829 -2.43725,13.42695 -6.86944,41.13593 -3.60097,22.51241 -6.58795,41.04103 -6.63775,41.17472 -0.0498,0.13369 -0.15461,0.079 -0.23294,-0.12153 -0.0783,-0.20054 -2.99243,-18.68604 -6.4758,-41.0789 -5.07869,-32.64838 -6.41362,-40.77447 -6.73832,-41.01812 -0.31571,-0.23689 -4.45142,-0.30302 -18.77105,-0.30012 -10.10137,0.002 -18.50301,0.0906 -18.67032,0.19687 -0.24276,0.15414 -0.29185,16.78206 -0.24307,82.33636 l 0.0611,82.14322 14.81177,0.0627 c 11.68846,0.0494 14.8527,-0.002 15.00588,-0.24307 0.10675,-0.16816 0.19577,-17.03202 0.19782,-37.47525 0.002,-20.44323 0.0547,-37.11856 0.11694,-37.05629 0.0623,0.0623 2.96482,16.83271 6.45011,37.26764 3.48529,20.43493 6.3941,37.24699 6.46402,37.36013 0.0699,0.11314 3.67793,0.20571 8.01779,0.20571 l 7.89066,0 0.23297,-0.54691 c 0.12814,-0.3008 2.97023,-16.89947 6.31577,-36.88593 3.34553,-19.98646 6.16431,-36.61247 6.26394,-36.94669 0.0996,-0.33422 0.23585,16.2371 0.30269,36.82516 l 0.12154,37.43283 28.62629,0.0618 28.62629,0.0618 0.22944,-0.54791 c 0.12619,-0.30135 0.94823,-5.85292 1.82675,-12.33682 0.87852,-6.4839 1.64475,-11.92564 1.70274,-12.09275 0.0823,-0.23714 2.56056,-0.30384 11.28967,-0.30384 l 11.18423,0 0.12675,0.54691 c 0.0697,0.3008 0.8412,5.79723 1.71443,12.21428 0.87323,6.41706 1.64615,11.85925 1.71761,12.09377 0.12303,0.40373 1.62987,0.4231 28.3701598,0.3646 l 28.2402302,-0.0618 0.0618,-26.55107 0.0618,-26.55108 0.54584,-0.11528 c 2.00369,-0.4232 5.65006,-0.84167 5.82341,-0.66832 0.11442,0.11443 3.34926,12.17615 7.18853,26.80383 3.83925,14.62768 7.06875,26.73251 7.17665,26.89962 0.15333,0.23751 3.37681,0.30384 14.76604,0.30384 14.12886,0 14.56988,-0.0139 14.56988,-0.45973 0,-0.35461 -17.84173,-61.53674 -18.35334,-62.93654 -0.0642,-0.17573 0.40206,-0.77188 1.03618,-1.32478 8.96201,-7.8139 15.44958,-20.44797 16.47954,-32.09265 0.0922,-1.0421 0.21252,-1.84979 0.26743,-1.79488 0.0549,0.0549 3.79802,22.21986 8.31801,49.25541 5.7985,34.68289 8.31889,49.22229 8.56033,49.38225 0.40542,0.26861 34.26948,0.006 34.5694,-0.26777 z m -180.02761,-51.7176 c -0.13551,-0.22795 7.54105,-66.42618 7.72424,-66.60937 0.0735,-0.0735 0.13371,-0.0761 0.13371,-0.006 0,0.19132 7.7399,64.56529 7.90708,65.7644 l 0.14403,1.03305 -7.90034,0 c -4.34518,0 -7.94911,-0.082 -8.00872,-0.1823 z m 79.13724,-56.72168 0.0619,-26.10455 1.31359,0.0563 c 4.56519,0.19568 10.03377,3.27898 13.01237,7.33666 2.14371,2.92031 3.69912,7.14818 4.41042,11.98832 0.5969,4.06183 0.37248,11.26186 -0.46038,14.77011 -1.37024,5.77171 -3.41154,9.57174 -6.96595,12.96761 -3.06271,2.9261 -6.45788,4.62544 -9.87968,4.94497 l -1.5541,0.14513 0.0619,-26.10455 z m 240.33403,108.19724 c 0.31084,-0.58082 0.23525,-29.02275 -0.078,-29.33602 -0.11133,-0.11134 -5.77183,-0.23269 -12.57889,-0.26965 l -12.37649,-0.0672 0,-67.03237 c 0,-51.81218 -0.0662,-67.09859 -0.29169,-67.32404 -0.22024,-0.22025 -3.78747,-0.29169 -14.56434,-0.29169 -7.84995,0 -14.44567,0.0664 -14.65714,0.14754 -0.34956,0.13414 -0.38449,7.60654 -0.38449,82.23881 0,45.15019 0.0729,82.16419 0.16206,82.25331 0.0891,0.0891 12.3907,0.16205 27.33686,0.16205 26.82396,0 27.17813,-0.006 27.43209,-0.48073 z"
         id="path4209"
         inkscape:connector-curvature="0" />
      <path
         style="fill:#ec2a31"
         d="m -200.42648,868.07651 0,-97.71429 243.07038,0 243.07037,0 0,97.71429 0,97.71428 -243.07037,0 -243.07038,0 0,-97.71428 z m 44.58353,82.49638 c 0.34826,-0.13364 0.38449,-3.61848 0.38449,-36.98721 0,-20.26182 0.0738,-36.7659 0.16392,-36.67575 0.0902,0.0902 2.9724,16.63579 6.40499,36.76808 4.37023,25.6316 6.34305,36.66873 6.58128,36.81957 0.18712,0.11847 3.79969,0.21708 8.02794,0.21913 5.92304,0.003 7.74654,-0.0672 7.94399,-0.30507 0.14095,-0.16983 3.00157,-16.65912 6.35693,-36.64286 3.35537,-19.98373 6.14342,-36.44345 6.19567,-36.57714 0.0522,-0.13369 0.10364,16.18372 0.11419,36.26089 0.0173,32.84487 0.0575,36.54225 0.40116,36.88593 0.34288,0.34288 3.28716,0.38197 28.77408,0.38197 22.89678,0 28.44251,-0.0607 28.65252,-0.31378 0.14323,-0.17258 0.97851,-5.55962 1.8562,-11.97121 0.87768,-6.4116 1.65763,-11.95824 1.73323,-12.32589 l 0.13744,-0.66844 11.16192,0 c 6.13906,0 11.16242,0.0274 11.16302,0.0608 0.0235,1.3009 3.44714,24.61559 3.65071,24.86087 0.25817,0.31108 3.9515,0.35768 28.3477298,0.35768 l 28.0508802,0 0.23705,-0.6235 c 0.14868,-0.39106 0.23706,-10.34887 0.23706,-26.71069 l 0,-26.08719 0.78998,-0.13951 c 2.59828,-0.45887 5.08848,-0.69489 5.27311,-0.49978 0.1148,0.12132 3.34526,12.19673 7.1788,26.83424 3.83353,14.6375 7.08448,26.75152 7.22434,26.92004 0.19937,0.24023 3.35773,0.30558 14.62642,0.30267 8.28916,-0.002 14.52129,-0.0981 14.7245,-0.22663 0.29358,-0.18572 -1.20077,-5.51408 -8.95746,-31.93956 l -9.30984,-31.71666 2.56571,-2.47123 c 4.4354,-4.27205 7.30334,-8.23509 10.11471,-13.97696 2.63348,-5.37853 4.01327,-9.85019 4.72519,-15.31343 0.2151,-1.65063 0.36638,-2.23569 0.47137,-1.82303 0.085,0.33422 3.7173,21.99179 8.07171,48.12793 4.35443,26.13614 8.02404,47.93044 8.15469,48.43177 l 0.23758,0.91152 17.18785,-0.004 c 9.45332,-0.002 17.33264,-0.0955 17.50959,-0.20771 0.17696,-0.11219 0.41249,-0.63008 0.52343,-1.15086 0.11094,-0.52078 5.21214,-32.58552 11.336,-71.25498 6.12384,-38.66946 11.22067,-70.3081 11.32623,-70.3081 0.10559,0 0.19198,32.09181 0.19198,71.31514 0,64.80586 0.0351,71.32862 0.38449,71.46269 0.21147,0.0811 12.82317,0.14754 28.02601,0.14754 21.17488,0 27.70976,-0.0682 27.93321,-0.29168 0.42131,-0.42132 0.42131,-29.37912 0,-29.80043 -0.21956,-0.21957 -3.49482,-0.29169 -13.24733,-0.29169 l -12.95566,0 0,-18.47125 0,-18.47125 13.18657,-0.0629 13.18657,-0.0629 0,-15.19189 0,-15.1919 -13.18657,-0.0629 -13.18657,-0.0629 0,-18.22609 0,-18.22609 13.18657,-0.0629 13.18657,-0.0629 0,-15.1919 0,-15.1919 -41.79525,-0.0615 c -22.9874,-0.0338 -41.87835,0.0216 -41.9799,0.12318 -0.10156,0.10155 -3.14361,21.78678 -6.76013,48.18939 -3.6165,26.40261 -6.61574,48.11413 -6.66497,48.24782 -0.0492,0.13369 -0.15427,-0.0304 -0.23342,-0.3646 -0.0792,-0.33422 -3.03821,-22.01706 -6.57568,-48.18408 -3.53745,-26.16702 -6.50063,-47.68786 -6.5848,-47.8241 -0.10131,-0.16389 -5.24913,-0.24769 -15.21674,-0.24769 -14.12122,0 -15.07401,0.0266 -15.22919,0.42538 -0.091,0.23395 0.50479,5.73038 1.32405,12.21428 0.81927,6.4839 1.45872,11.8199 1.42095,11.85776 -0.0377,0.0379 -0.89295,-1.16533 -1.90045,-2.67377 -7.81221,-11.69669 -18.32471,-18.7264 -31.65523,-21.16789 -2.83459,-0.51916 -3.42404,-0.53422 -20.90405,-0.53422 l -17.98721018,0 -0.12153,69.76119 c -0.0668,38.36866 -0.19755,69.59712 -0.29046,69.39659 -0.0929,-0.20053 -4.83530002,-31.48369 -10.53863982,-69.51812 -5.70334,-38.03444 -10.48085,-69.29025 -10.6167,-69.45736 -0.3614,-0.44458 -39.39564,-0.44458 -39.74215,0 -0.13025,0.16711 -5.07319,32.62612 -10.98431,72.13113 -5.91113,39.50501 -10.82217,71.99136 -10.91342,72.1919 -0.0913,0.20053 -0.22061,-32.23113 -0.28746,-72.07036 l -0.12153,-72.43497 -18.86773,-0.0623 c -14.90846,-0.0492 -18.92049,0.002 -19.11917,0.24307 -0.13829,0.16792 -3.18545,18.65075 -6.77146,41.07295 -3.58602,22.4222 -6.58515,40.68893 -6.66475,40.59275 -0.0796,-0.0962 -2.9582,-18.33224 -6.39689,-40.52456 -3.4387,-22.19232 -6.35402,-40.59579 -6.47848,-40.89659 l -0.22629,-0.54691 -18.93869,0 c -17.04538,0 -18.95345,0.0384 -19.08624,0.38449 -0.0811,0.21147 -0.14754,37.21528 -0.14754,82.2307 0,63.33408 0.066,81.91219 0.29169,82.1379 0.22035,0.22036 3.84149,0.29169 14.80741,0.29169 7.98365,0 14.68875,-0.0664 14.90021,-0.14754 z M -48.5075,898.13412 c 0,-0.35106 7.18207,-62.53624 7.4254,-64.29205 0.0804,-0.58043 0.19111,-1.01046 0.24594,-0.95564 0.10426,0.10426 7.88517,64.38278 7.88517,65.13979 0,0.40769 -0.47298,0.43408 -7.77825,0.43408 -6.34466,0 -7.77826,-0.0601 -7.77826,-0.32618 z m 79.24095,-56.28162 0,-26.03612 0.86353,0 c 2.62719,0 7.06103,1.69743 9.74194,3.72955 3.88981,2.94849 6.58439,8.02223 7.76564,14.62226 0.59516,3.32544 0.61455,10.75965 0.0362,13.88799 -2.03265,10.99522 -8.57599,18.45562 -17.25277,19.67076 l -1.15458,0.16169 0,-26.03613 z m 239.98809,108.56409 c 0.38284,-0.28122 0.40892,-1.40757 0.35032,-15.13113 l -0.0634,-14.82729 -12.51812,-0.12154 -12.51813,-0.12153 -0.12153,-67.20896 -0.12154,-67.20895 -14.94882,0 -14.94883,0 -0.0622,82.15778 c -0.0583,77.02837 -0.0364,82.17675 0.35029,82.46162 0.32413,0.23875 6.17209,0.30384 27.30037,0.30384 21.12768,0 26.97651,-0.0651 27.30152,-0.30384 z"
         id="path4207"
         inkscape:connector-curvature="0" />
      <path
         style="fill:#ec1c23"
         d="m -200.42648,868.07651 0,-97.71429 243.07038,0 243.07037,0 0,97.71429 0,97.71428 -243.07037,0 -243.07038,0 0,-97.71428 z m 230.43072,82.66951 0.60767,-0.16902 0.12154,-26.59985 0.12153,-26.59985 2.91284,-0.41453 c 1.60206,-0.228 2.93656,-0.39081 2.96557,-0.36181 0.029,0.029 3.21614,12.11617 7.08254,26.86036 3.86638,14.7442 7.15867,26.93655 7.31618,27.09413 0.21127,0.2114 3.86785,0.30564 13.94706,0.35946 7.51338,0.0401 14.12555,0.006 14.69372,-0.0757 0.90855,-0.13069 1.03305,-0.22382 1.03305,-0.77271 0,-0.34326 -4.10181,-14.59822 -9.11514,-31.67769 -5.01332,-17.07946 -9.11513,-31.17826 -9.11513,-31.33067 0,-0.1524 1.08713,-1.32054 2.41582,-2.59586 1.3287,-1.27532 3.0133,-3.05011 3.74355,-3.94397 3.13333,-3.8353 6.34037,-9.39366 8.29213,-14.37163 1.07897,-2.75189 2.45149,-7.98104 2.7511,-10.48138 0.11917,-0.99464 0.28295,-1.64437 0.36392,-1.44384 0.081,0.20054 3.75063,21.95299 8.15479,48.33878 5.47137,32.77945 8.11299,48.04806 8.34038,48.20747 0.42319,0.29671 34.71427,0.0629 35.01592,-0.23878 0.11791,-0.1179 5.26947,-32.10123 11.44791,-71.07407 l 11.23354,-70.85969 0.12154,71.00185 0.12153,71.00184 28.30273,0.0618 c 22.48163,0.0491 28.34254,-9.7e-4 28.49628,-0.24307 0.28055,-0.44188 0.24482,-29.39215 -0.0368,-29.83791 -0.19922,-0.31534 -2.00516,-0.3739 -13.36516,-0.43342 l -13.13477,-0.0688 0,-18.22223 0,-18.22222 13.11725,0 c 12.71987,0 13.12488,-0.0143 13.36887,-0.47016 0.34737,-0.64906 0.34737,-29.52363 0,-30.17269 -0.24399,-0.45591 -0.649,-0.47016 -13.36887,-0.47016 l -13.11725,0 0,-17.9872 0,-17.98721 12.98691,0 c 11.48219,0 13.03115,-0.0443 13.36887,-0.38197 0.33887,-0.33887 0.38197,-2.05084 0.38197,-15.17453 0,-13.1237 -0.0431,-14.83567 -0.38197,-15.17454 -0.34428,-0.34429 -4.47441,-0.3816 -41.86887,-0.37825 -24.41075,0.002 -41.63037,0.0945 -41.83547,0.22429 -0.24091,0.15244 -0.55005,1.67162 -1.00089,4.91846 -0.35877,2.58383 -3.31648,24.15194 -6.57263,47.92912 -3.78594,27.64556 -5.98077,42.98107 -6.08796,42.53732 -0.0922,-0.38166 -3.03359,-21.91397 -6.53641,-47.84958 -5.02322,-37.1931 -6.44967,-47.21984 -6.75183,-47.45949 -0.29706,-0.23559 -3.72401,-0.30384 -15.25573,-0.30384 -12.99678,0 -14.9112,0.0465 -15.17858,0.36869 -0.24878,0.29974 -0.0471,2.4249 1.07836,11.36354 0.76137,6.04717 1.44442,11.37769 1.51782,11.8456 0.11546,0.73562 -0.10308,0.50537 -1.61488,-1.7015 -0.96164,-1.40373 -2.14293,-3.04445 -2.62509,-3.64605 -8.58337,-10.70935 -19.92966,-16.82728 -33.35497,-17.98506 -3.61694,-0.31192 -34.0239202,-0.31835 -34.51599018,-0.007 -0.32223,0.20369 -0.37873,8.25901 -0.48614,69.30992 l -0.12156,69.07915 L -10.324,855.29313 c -5.94179,-39.63483 -10.44922,-68.99842 -10.63993,-69.31364 l -0.33089,-0.54691 -19.65334,0 c -16.75627,0 -19.6959,0.0513 -19.94214,0.348 -0.15885,0.1914 -5.12176,32.56987 -11.0287,71.95216 l -10.73988,71.60416 -0.0612,-71.62391 c -0.0448,-52.45646 -0.13408,-71.71175 -0.3336,-71.95216 -0.22449,-0.27049 -3.57136,-0.32759 -19.01985,-0.32453 -10.31108,0.002 -18.89033,0.0944 -19.065,0.20515 -0.21194,0.13441 -2.47309,13.67571 -6.79733,40.70705 -3.56385,22.27811 -6.54739,40.42518 -6.63008,40.32685 -0.0827,-0.0983 -2.96467,-18.27849 -6.40442,-40.40033 -3.43974,-22.12183 -6.37002,-40.36122 -6.51173,-40.53198 -0.20504,-0.24705 -4.08681,-0.3097 -19.00509,-0.30674 -10.31108,0.002 -18.88431,0.0906 -19.05161,0.19687 -0.24277,0.15414 -0.29185,16.83067 -0.24308,82.57943 l 0.0611,82.38629 15.13113,0.0626 c 8.32212,0.0344 15.15758,0.0344 15.18991,0 0.0323,-0.0344 0.11437,-16.37091 0.1823,-36.30327 l 0.12352,-36.24067 6.15118,36.10365 c 3.38314,19.85701 6.20618,36.19266 6.2734,36.30144 0.0672,0.10877 3.77622,0.19778 8.2422,0.19778 7.48917,0 8.1367,-0.0331 8.33543,-0.42538 0.11851,-0.23395 2.93893,-16.65796 6.26761,-36.4978 l 6.05215,-36.07244 0.12153,36.43704 0.12154,36.43704 28.86937,0.0618 28.86936,0.0618 0.22804,-0.5479 c 0.12542,-0.30134 0.94627,-5.85291 1.82411,-12.33681 0.87784,-6.4839 1.64513,-11.92676 1.70509,-12.09523 0.086,-0.24154 2.43494,-0.29294 11.10622,-0.24307 l 10.9972,0.0633 1.64196,12.03198 c 0.90308,6.61759 1.70183,12.27755 1.775,12.57769 l 0.13304,0.54572 23.7557998,0.0632 c 13.0656902,0.0348 25.6152902,0.0791 27.8879902,0.0985 2.27271,0.0194 4.40565,-0.0407 4.73988,-0.13369 z m -78.37808,-52.95416 c 0.0668,-0.36765 1.76264,-14.88806 3.76848,-32.26759 2.00583,-17.37953 3.68989,-31.70853 3.74235,-31.84222 0.0525,-0.13369 0.10402,-0.0567 0.11458,0.17116 0.0303,0.65372 7.52654,62.93588 7.681,63.81711 l 0.13847,0.78998 -7.78319,0 -7.78319,0 0.1215,-0.66844 z m 79.10729,-56.09686 0,-25.89537 1.27612,0.15451 c 7.3375,0.88835 12.82456,5.38628 15.49413,12.70105 1.44756,3.9664 1.79984,6.38744 1.81014,12.4405 0.007,4.29193 -0.083,5.92477 -0.41946,7.58618 -1.64068,8.1005 -5.90759,14.3703 -11.71957,17.22075 -2.06318,1.01188 -4.32242,1.68774 -5.64169,1.68774 l -0.79967,0 0,-25.89536 z m 240.38804,108.55527 c 0.16536,-0.30898 0.25163,-5.42776 0.25163,-14.93147 0,-12.82255 -0.0433,-14.50459 -0.38196,-14.84327 -0.33717,-0.33714 -1.82041,-0.38197 -12.63966,-0.38197 l -12.2577,0 0,-67.0388 c 0,-51.8172 -0.0662,-67.10504 -0.29169,-67.33049 -0.22046,-0.22047 -3.90125,-0.29169 -15.07639,-0.29169 l -14.78468,0 -0.23707,0.6235 c -0.1523,0.40061 -0.23704,29.72125 -0.23704,82.02043 0,52.29917 0.0847,81.61981 0.23704,82.02042 l 0.23707,0.6235 27.46442,0 c 26.90449,0 27.46953,-0.01 27.71603,-0.47016 z"
         id="path4205"
         inkscape:connector-curvature="0" />
    </g>
  </g>
</svg>
